<svg width="126" height="40" viewBox="0 0 126 40" fill="none" xmlns="http://www.w3.org/2000/svg">
<g clip-path="url(#clip0_385_629)">
<path d="M0 39.8879C0.678892 39.3913 1.17339 38.7109 1.73285 38.0981C5.68362 33.7779 9.61764 29.4407 13.5695 25.1205C13.823 24.8437 13.8303 24.681 13.6281 24.3661C10.9429 20.2001 8.27661 16.0225 5.60714 11.847C5.53381 11.7319 5.48038 11.603 5.40285 11.4508C5.61553 11.3241 5.82716 11.3748 6.02307 11.3748C10.0178 11.3716 14.0116 11.379 18.0064 11.3621C18.438 11.36 18.6947 11.473 18.9241 11.8597C20.6936 14.8498 22.4883 17.824 24.2735 20.8045C26.6685 24.8035 29.0614 28.8036 31.4585 32.8016C32.8131 35.0605 34.1751 37.3152 35.5308 39.5731C35.5915 39.6745 35.6251 39.7918 35.6795 39.9196C35.4962 40.0242 35.3212 39.9841 35.1568 39.9841C31.2322 39.9883 27.3076 39.9841 23.383 39.9989C23.0079 39.9999 22.8005 39.9006 22.6056 39.5562C21.581 37.7484 20.5124 35.9671 19.4794 34.1635C19.2604 33.7821 19.1211 33.7652 18.8193 34.0843C17.0603 35.9396 15.2803 37.7748 13.5181 39.627C13.273 39.8848 13.0268 39.9999 12.6601 39.9989C8.44005 39.9851 4.22003 39.9915 0 39.9925V39.8869V39.8879Z" fill="black"/>
<path d="M104.536 14.8668C105.749 14.1008 106.888 13.2999 108.1 12.6332C111.453 10.7874 115.001 9.72664 118.871 10.2739C121.828 10.6913 124.011 12.2349 125.217 15.0221C125.556 15.806 125.583 16.702 125.582 17.5641C125.577 19.9224 125.351 22.2658 125.068 24.6029C124.84 26.4846 124.609 28.3663 124.332 30.2406C124.008 32.4436 123.63 34.6391 123.281 36.8388C123.143 37.7052 123.002 38.5716 122.894 39.4411C122.846 39.8257 122.713 39.9768 122.302 39.9747C118.412 39.9599 114.522 39.9599 110.632 39.9736C110.222 39.9747 110.124 39.8595 110.191 39.4559C110.508 37.552 110.809 35.646 111.098 33.7378C111.351 32.0727 111.568 30.4023 111.82 28.7372C112.062 27.1386 112.236 25.5327 112.312 23.9182C112.36 22.9346 112.338 21.9583 112.139 20.981C111.892 19.7744 111.089 19.0327 109.87 18.8785C107.422 18.5679 105.897 19.8326 104.758 21.8157C104.189 22.8067 103.994 23.9151 103.741 25.0044C103.067 27.9078 102.552 30.8439 101.998 33.7716C101.629 35.7178 101.318 37.6756 101.004 39.6323C100.941 40.0243 100.707 39.9916 100.441 39.9916C97.9468 39.9905 95.4523 39.9916 92.9578 39.9916C91.7194 39.9916 90.48 39.9831 89.2417 39.9968C88.8886 40.0011 88.7734 39.9588 88.8509 39.5362C89.1746 37.777 89.4376 36.0062 89.7331 34.2418C90.083 32.1498 90.4476 30.06 90.7964 27.9669C91.0762 26.2881 91.336 24.6061 91.6147 22.9283C91.9709 20.7835 92.3449 18.6408 92.698 16.4949C92.9431 15.0073 93.1788 13.5165 93.3884 12.0236C93.4554 11.5428 93.6126 11.3421 94.1417 11.3453C97.4733 11.3706 100.806 11.3696 104.137 11.3453C104.67 11.341 104.782 11.4964 104.713 12.0046C104.623 12.6639 104.63 13.3358 104.525 13.9972C104.483 14.2635 104.449 14.5445 104.538 14.8668H104.536Z" fill="black"/>
<path d="M61.9185 39.9874C60.0872 39.9874 58.2548 39.9811 56.4235 39.9927C56.062 39.9948 55.9143 39.9747 56.0065 39.5109C56.4277 37.3957 56.7881 35.2689 57.1841 33.1494C57.6388 30.7204 58.1155 28.2946 58.5691 25.8655C58.9557 23.7979 59.3161 21.7239 59.6995 19.6551C60.2653 16.6049 60.8478 13.5567 61.4114 10.5054C61.863 8.05736 62.2957 5.60616 62.7409 3.15602C62.9065 2.2421 63.0888 1.33135 63.2532 0.417437C63.3035 0.137451 63.4062 0.00749476 63.7278 0.00855131C67.4083 0.0212299 71.0898 0.0212299 74.7703 0.00855131C75.1339 0.00749476 75.1726 0.14696 75.116 0.451247C74.7714 2.29493 74.4319 4.13967 74.0998 5.98547C73.7425 7.96967 73.402 9.95704 73.0406 11.9412C72.587 14.4241 72.1124 16.9039 71.6587 19.3878C71.2721 21.5094 70.9075 23.6352 70.523 25.7567C70.0642 28.2924 69.5917 30.8261 69.1286 33.3607C68.7472 35.4474 68.3648 37.5341 68.0034 39.625C67.9468 39.9515 67.7991 39.9969 67.5183 39.9959C65.6514 39.9864 63.7855 39.9906 61.9185 39.9906V39.9864V39.9874Z" fill="black"/>
<path d="M44.9881 39.9916C43.0877 39.9916 41.1861 39.9853 39.2857 39.9969C38.898 39.999 38.7608 39.9789 38.8624 39.4887C39.2794 37.4633 39.622 35.4231 40.0012 33.3892C40.3574 31.4769 40.7346 29.5677 41.0866 27.6543C41.4376 25.7408 41.7613 23.8232 42.1112 21.9087C42.3721 20.4782 42.6613 19.0529 42.9284 17.6223C43.2878 15.693 43.6461 13.7627 43.9845 11.8292C44.0463 11.4795 44.193 11.3654 44.5366 11.3665C48.3732 11.3749 52.2097 11.3749 56.0463 11.3665C56.3962 11.3665 56.4843 11.451 56.413 11.8197C55.9353 14.2804 55.4774 16.7443 55.0217 19.2092C54.567 21.6731 54.1312 24.1412 53.6723 26.604C53.2187 29.0331 52.7378 31.4568 52.2852 33.8858C51.9353 35.7643 51.6042 37.6461 51.2815 39.5288C51.2239 39.868 51.1003 39.999 50.7441 39.9958C48.8258 39.98 46.9075 39.9884 44.9892 39.9884L44.9881 39.9916Z" fill="black"/>
<path d="M78.8375 39.9916C76.9716 39.9916 75.1046 39.9842 73.2387 39.998C72.8794 40.0011 72.7631 39.9473 72.8437 39.5363C73.3403 37.0259 73.8118 34.5092 74.2769 31.9925C74.63 30.0791 74.9506 28.1593 75.3037 26.2469C75.6892 24.1613 76.102 22.082 76.4917 19.9974C77.003 17.2578 77.5059 14.5171 78.0004 11.7743C78.0559 11.4679 78.1932 11.3696 78.4886 11.3707C82.1513 11.377 85.8139 11.3781 89.4766 11.3696C89.8359 11.3696 89.9124 11.4774 89.8496 11.8335C89.3645 14.5435 88.9046 17.2567 88.4258 19.9679C88.0455 22.1264 87.6442 24.2807 87.2639 26.4392C86.9108 28.4414 86.5808 30.4489 86.2267 32.451C85.8789 34.4194 85.5111 36.3835 85.157 38.3508C85.0858 38.7481 85.0125 39.1464 84.9789 39.5479C84.9496 39.9124 84.7788 40.0022 84.4373 40.0001C82.5714 39.9863 80.7044 39.9937 78.8385 39.9937L78.8375 39.9916Z" fill="black"/>
<path d="M41.3003 11.45C40.9818 11.7331 40.7544 11.9159 40.548 12.1198C36.8361 15.7787 33.1242 19.4375 29.4196 23.1037C29.1273 23.3932 28.944 23.5802 28.6381 23.0879C27.0802 20.5828 25.5024 18.0893 23.9005 15.6128C23.6847 15.28 23.779 15.1278 24.0032 14.9324C25.2635 13.8335 26.5281 12.7379 27.7842 11.6327C27.9655 11.4732 28.1478 11.3876 28.3908 11.3887C32.5763 11.394 36.7617 11.3929 40.9472 11.395C40.9985 11.395 41.0499 11.4109 41.3003 11.451V11.45Z" fill="#C93127"/>
<path d="M50.9829 7.83548C49.1013 7.83548 47.2186 7.82174 45.337 7.84499C44.8719 7.85027 44.6854 7.7668 44.7891 7.24804C45.095 5.7192 45.3632 4.18298 45.6482 2.64992C45.7791 1.94414 45.9635 1.24365 46.0306 0.531533C46.0735 0.0729889 46.2496 8.68205e-05 46.6477 0.0117089C49.0856 0.0877807 51.5246 -0.0485146 53.9636 0.0159351C55.2522 0.0497448 56.5408 0.102572 57.8295 0.120534C58.214 0.125817 58.2758 0.225132 58.2087 0.612887C57.9929 1.85539 57.8421 3.2997 57.6556 4.54749C57.5131 5.5005 57.3329 6.44823 57.2166 7.40441C57.1705 7.78371 57.0102 7.84182 56.6812 7.8397C54.7818 7.82703 52.8824 7.83337 50.9829 7.83337V7.83548Z" fill="black"/>
<path d="M91.6011 0.0180005C92.0307 0.0127177 92.0977 0.161692 92.0234 0.540994C91.5833 2.81047 91.0574 5.37578 90.632 7.64842C90.5744 7.95904 90.433 8.08583 90.1061 8.08477C86.4623 8.07632 82.8185 8.07527 79.1747 8.08477C78.7881 8.08477 78.6928 7.94848 78.763 7.57974C79.1139 5.73817 79.4492 3.89343 79.7897 2.05081C79.8819 1.55106 79.9929 1.05448 80.0558 0.550503C80.105 0.153239 80.2517 0.00215221 80.6812 0.00849152C82.4581 0.0359619 89.7709 0.0391315 91.6001 0.0169439L91.6011 0.0180005Z" fill="black"/>
</g>
<defs>
<clipPath id="clip0_385_629">
<rect width="125.581" height="40" fill="white"/>
</clipPath>
</defs>
</svg>
